<?xml version="1.0" standalone="no"?>
<!DOCTYPE svg PUBLIC "-//W3C//DTD SVG 20010904//EN"
 "http://www.w3.org/TR/2001/REC-SVG-20010904/DTD/svg10.dtd">
<svg version="1.0" xmlns="http://www.w3.org/2000/svg"
 width="1501.000000pt" height="466.000000pt" viewBox="0 0 1501.000000 466.000000"
 preserveAspectRatio="xMidYMid meet">
<metadata>
Created by potrace 1.16, written by Peter Selinger 2001-2019
</metadata>
<g transform="translate(0.000000,466.000000) scale(0.100000,-0.100000)"
fill="#000000" stroke="none">
<path d="M2974 4305 c-14 -22 -15 -31 -4 -72 13 -44 12 -47 -11 -67 -69 -60
-84 -136 -55 -287 8 -41 19 -134 26 -208 18 -202 38 -250 122 -295 36 -19 37
-22 42 -90 7 -90 25 -570 22 -573 -1 -1 -19 28 -40 65 -119 207 -327 400 -401
372 -45 -17 -53 -74 -20 -140 53 -106 141 -385 179 -570 19 -91 57 -313 53
-315 -1 -1 -40 2 -87 6 -47 4 -214 11 -371 15 l-286 7 4 46 c7 77 63 363 99
506 27 105 55 209 66 240 5 17 13 46 18 65 4 19 14 53 23 75 8 22 18 52 21 68
6 24 11 27 44 27 24 0 51 9 75 25 37 25 87 92 87 117 1 7 9 31 20 53 11 22 19
44 20 48 0 10 61 142 108 236 32 64 37 82 36 142 0 56 -5 75 -23 100 l-23 31
21 29 c23 31 28 98 9 117 -7 7 -29 12 -50 12 -34 0 -41 -5 -71 -50 -19 -27
-36 -47 -40 -44 -11 12 -112 -19 -144 -44 -23 -17 -51 -62 -92 -146 -83 -168
-171 -392 -171 -433 0 -41 23 -100 53 -131 l21 -23 -23 -72 c-13 -40 -31 -97
-41 -127 -10 -30 -25 -82 -33 -115 -9 -33 -24 -94 -35 -135 -11 -41 -27 -109
-35 -150 -9 -41 -25 -118 -37 -170 -11 -52 -20 -103 -20 -114 0 -10 -7 -58
-16 -108 l-17 -89 -46 3 -46 3 1 195 c1 188 17 375 49 575 8 50 20 120 25 157
6 37 15 79 20 93 15 39 12 59 -11 84 -16 16 -30 21 -56 19 -33 -3 -42 -12
-104 -98 -38 -52 -96 -149 -129 -215 l-60 -120 0 247 0 246 36 22 c19 13 47
40 62 62 33 50 38 134 24 418 -8 166 -12 201 -30 235 -24 48 -65 87 -109 105
-29 11 -33 18 -39 62 -10 74 -69 103 -115 57 -18 -18 -20 -29 -15 -70 6 -47 5
-51 -24 -75 -17 -15 -42 -47 -57 -71 l-27 -46 12 -206 c7 -113 12 -234 12
-267 0 -100 30 -163 98 -205 l32 -21 -1 -266 0 -267 -39 110 c-47 137 -67 190
-79 213 -5 9 -30 60 -54 113 -44 92 -82 139 -114 139 -8 0 -26 -12 -40 -26
-25 -25 -25 -29 -19 -102 4 -43 11 -144 16 -227 5 -82 12 -181 15 -220 l5 -70
-21 65 c-12 36 -37 117 -57 180 -44 145 -73 233 -111 340 -35 96 -37 115 -16
124 22 8 55 91 55 137 0 54 -29 139 -143 427 -58 146 -115 202 -205 202 -33 0
-39 4 -56 40 -25 53 -40 64 -84 63 -63 -2 -80 -53 -40 -123 22 -37 22 -39 5
-58 -25 -27 -48 -108 -41 -141 5 -24 30 -91 74 -201 10 -25 25 -63 33 -85 8
-22 24 -64 36 -94 12 -29 21 -61 21 -70 1 -24 41 -85 76 -114 17 -15 52 -32
78 -39 37 -10 48 -17 52 -38 3 -14 10 -36 16 -50 6 -14 25 -70 43 -125 18 -55
37 -111 43 -125 5 -14 20 -59 32 -100 12 -41 28 -92 36 -113 8 -20 14 -47 14
-60 0 -18 -8 -13 -48 32 -74 86 -197 208 -221 221 -28 15 -78 4 -91 -20 -16
-29 -12 -49 26 -140 43 -101 94 -241 135 -365 17 -49 38 -96 47 -103 9 -7 33
-12 52 -10 27 2 38 9 49 32 13 28 7 55 -47 216 -10 30 66 -78 114 -161 77
-134 149 -293 168 -371 5 -24 3 -28 -21 -34 -14 -4 -42 -7 -62 -8 -36 -1 -36
-1 -47 54 -17 85 -43 158 -60 164 -30 12 -71 6 -87 -12 -22 -25 -21 -66 3
-137 33 -96 31 -100 -52 -124 -143 -41 -204 -64 -303 -113 -110 -54 -136 -73
-189 -143 -33 -43 -36 -52 -36 -116 0 -76 14 -114 59 -162 26 -29 130 -92 186
-114 33 -12 244 -89 285 -103 199 -68 284 -133 470 -362 41 -50 124 -125 153
-138 7 -3 29 -16 49 -29 l38 -23 -33 -38 c-18 -21 -43 -60 -56 -85 -41 -83
-14 -185 61 -228 27 -16 97 -17 819 -17 l789 0 11 27 c14 38 2 82 -24 88 -12
2 -118 6 -235 7 l-214 3 -24 28 c-13 15 -24 37 -24 47 0 55 78 165 161 226
248 182 618 162 828 -46 110 -108 137 -190 78 -234 -26 -19 -45 -21 -220 -26
l-191 -5 -15 -26 c-12 -22 -12 -31 -2 -58 l13 -31 220 0 c263 0 276 4 336 101
17 28 22 52 22 106 0 68 -12 104 -52 162 -19 26 -9 51 18 51 22 0 192 105 264
163 80 65 148 148 192 235 30 61 33 76 36 174 5 138 -18 207 -102 313 -39 50
-156 156 -179 164 -7 2 -19 9 -27 17 -8 7 -67 38 -130 70 -63 31 -117 59 -119
61 -6 4 22 96 49 163 72 181 175 396 264 550 14 25 29 52 32 60 4 8 13 22 20
30 40 47 12 120 -47 120 -52 0 -224 -126 -367 -271 -51 -51 -92 -89 -92 -84 0
28 65 257 117 410 24 72 48 145 53 164 10 41 14 45 66 59 82 24 114 58 167
182 8 19 27 64 42 100 15 36 49 110 76 166 26 55 51 118 55 140 7 45 -10 120
-33 146 -14 15 -13 20 6 51 38 63 21 127 -35 127 -37 0 -59 -15 -83 -55 -15
-27 -27 -35 -48 -35 -83 0 -155 -51 -203 -145 -46 -89 -34 -155 29 -155 38 0
56 16 89 80 16 30 41 62 56 70 23 13 29 13 54 0 40 -23 40 -60 -1 -144 -49
-99 -95 -200 -113 -249 -9 -23 -22 -58 -29 -77 -14 -38 -48 -70 -74 -70 -9 0
-27 9 -40 19 -21 16 -23 24 -18 58 4 22 16 60 27 84 36 80 16 149 -43 149 -26
0 -67 -38 -67 -61 0 -8 -6 -23 -13 -34 -21 -31 -47 -115 -47 -152 0 -40 23
-100 50 -128 23 -24 22 -26 -49 -240 -77 -227 -81 -241 -82 -266 -3 -45 -17
76 -18 151 -1 41 -8 111 -16 155 -8 44 -20 111 -25 148 -19 127 -53 166 -118
135 -30 -15 -34 -25 -57 -158 -15 -91 -44 -224 -68 -320 -13 -50 -12 -63 -32
381 -8 174 -8 177 13 183 12 4 36 26 54 49 l33 41 -2 149 c-2 81 -9 187 -17
235 -8 48 -17 112 -21 142 -12 104 -61 175 -137 199 -24 8 -39 20 -43 34 -3
12 -13 39 -22 60 -15 35 -19 37 -59 37 -35 0 -47 -5 -60 -25z m-2259 -252 c17
-17 45 -74 85 -178 12 -33 26 -69 31 -80 12 -29 38 -101 58 -165 28 -87 -1
-132 -72 -114 -23 5 -57 58 -57 88 0 7 -9 38 -21 67 -12 30 -28 72 -36 94 -26
69 -55 139 -68 165 -26 51 -27 85 -5 113 24 31 60 35 85 10z m2430 -17 c8 -19
19 -74 25 -123 5 -48 16 -135 25 -193 20 -146 19 -179 -7 -207 -25 -27 -49
-29 -83 -7 -18 12 -25 25 -25 47 0 44 -28 276 -46 380 -14 80 -13 91 1 113 12
19 24 24 56 24 36 0 41 -3 54 -34z m-1540 -28 c15 -38 35 -269 35 -411 0 -86
-2 -98 -22 -117 -24 -22 -65 -26 -89 -7 -13 10 -17 45 -23 192 -4 99 -11 211
-16 249 -12 95 3 126 61 126 36 0 41 -3 54 -32z m1018 -180 l20 -27 -32 -68
c-85 -177 -151 -329 -151 -349 0 -7 -12 -26 -26 -43 -50 -60 -125 -25 -110 52
11 58 172 414 204 450 23 26 70 18 95 -15z m-1255 -1083 c27 -92 46 -168 71
-290 22 -110 56 -344 50 -349 -2 -2 -30 -7 -61 -10 l-58 -7 0 59 c0 33 -9 160
-19 283 -11 123 -22 274 -24 334 -6 122 0 120 41 -20z m427 14 c-10 -68 -16
-193 -18 -364 -1 -159 -6 -263 -12 -267 -5 -4 -38 -8 -72 -8 -73 0 -69 -11
-52 145 17 157 62 339 120 485 12 30 26 69 32 87 7 17 13 30 14 29 2 -2 -4
-50 -12 -107z m1625 -477 c-4 -123 -9 -225 -12 -227 -7 -7 -93 18 -100 29 -4
6 -8 25 -8 41 0 17 -9 62 -19 100 -18 63 -18 73 -5 105 8 19 19 51 23 70 5 19
16 62 25 95 31 109 74 279 82 325 14 71 22 -274 14 -538z m-503 490 c47 -68
153 -284 153 -311 0 -6 6 -25 14 -43 17 -40 86 -297 86 -320 0 -2 -32 1 -72 7
-81 12 -85 17 -87 105 -2 91 -81 445 -127 573 -24 66 -18 64 33 -11z m939
-308 c-35 -70 -82 -173 -96 -209 -4 -11 -16 -42 -27 -70 -26 -65 -43 -111 -56
-157 -12 -43 -14 -43 -79 -20 l-47 17 39 92 c45 105 83 171 149 258 51 67 142
167 148 162 2 -2 -12 -35 -31 -73z m-1156 -464 c377 -15 762 -79 974 -161 27
-11 53 -19 58 -19 20 0 223 -104 280 -143 63 -43 136 -118 172 -177 63 -101
59 -237 -8 -336 -75 -111 -242 -239 -402 -308 l-41 -18 -52 36 c-28 20 -54 36
-58 36 -3 0 -14 6 -22 13 -19 15 -102 48 -186 73 -90 27 -305 26 -400 -3 -154
-46 -260 -107 -346 -200 l-54 -59 -40 28 c-107 76 -286 127 -442 128 -127 0
-280 -33 -374 -80 l-37 -19 -59 30 c-87 47 -156 103 -218 180 -137 170 -294
301 -405 339 -14 5 -43 16 -65 24 -22 8 -92 34 -155 57 -179 65 -182 66 -232
94 -57 32 -98 78 -98 110 0 51 92 122 225 173 33 13 82 32 109 43 27 10 56 19
66 19 9 0 36 6 61 14 100 32 366 77 609 103 266 28 774 39 1140 23z m-380
-1271 c74 -22 110 -39 178 -82 l42 -27 -6 -54 c-4 -31 -2 -68 4 -85 l11 -31
-445 0 c-434 0 -444 0 -465 21 l-20 20 22 37 c50 83 173 167 304 206 80 24
290 21 375 -5z"/>
<path d="M1504 1775 c-23 -35 -9 -86 26 -96 39 -11 575 -10 604 1 31 12 42 50
26 90 l-12 30 -314 0 -314 0 -16 -25z"/>
<path d="M2560 1770 c-16 -40 -5 -78 26 -90 14 -6 175 -10 375 -10 l350 0 24
25 c29 28 31 51 9 83 l-15 22 -378 0 -379 0 -12 -30z"/>
<path d="M1200 1500 c-25 -25 -26 -72 -2 -93 17 -16 120 -17 1274 -17 1203 0
1256 1 1271 18 22 25 21 75 -1 95 -17 16 -120 17 -1270 17 -1239 0 -1252 0
-1272 -20z"/>
<path d="M1776 1208 c-20 -28 -20 -58 -2 -84 14 -18 33 -19 613 -21 462 -2
603 0 622 10 33 17 42 46 25 85 l-13 32 -615 0 -615 0 -15 -22z"/>
<path d="M5246 3147 c-49 -237 -91 -438 -94 -444 -3 -10 65 -13 321 -13 l324
0 15 75 15 75 -223 0 c-179 0 -224 3 -224 13 0 11 127 626 145 705 5 22 4 22
-92 22 l-98 0 -89 -433z"/>
<path d="M6227 3378 c-63 -112 -176 -311 -250 -443 l-135 -240 91 -3 c50 -1
95 -1 102 1 6 3 33 48 60 101 l50 96 171 0 171 0 14 -97 14 -98 93 -3 93 -3
-6 33 c-20 114 -135 835 -135 845 0 10 -28 13 -109 13 l-110 0 -114 -202z
m213 -171 c12 -87 20 -160 17 -163 -2 -2 -58 -3 -124 -2 l-119 3 100 162 c54
90 100 162 101 160 2 -1 13 -73 25 -160z"/>
<path d="M6989 3578 c0 -2 -42 -201 -92 -443 l-93 -440 94 -3 c52 -1 96 -1 98
1 2 2 16 62 31 133 l27 129 82 72 82 73 35 -63 c19 -34 67 -126 108 -204 l73
-143 108 0 c59 0 108 2 108 4 0 5 -225 421 -265 491 l-23 41 198 174 199 175
-130 3 -130 3 -192 -180 c-106 -98 -193 -178 -195 -177 -1 2 13 79 33 172 19
93 35 172 35 176 0 7 -189 12 -191 6z"/>
<path d="M7886 3557 c-12 -49 -176 -845 -176 -856 0 -8 98 -11 349 -11 l349 0
16 69 c9 39 16 72 16 75 0 4 -115 6 -255 6 -197 0 -255 3 -255 13 0 6 9 50 20
97 11 47 22 95 25 108 l5 22 230 0 230 0 5 23 c14 63 25 113 25 120 0 4 -104
7 -231 7 -193 0 -230 2 -226 14 3 8 13 53 23 100 l17 86 238 0 238 0 11 58 c6
31 14 65 16 75 5 16 -15 17 -329 17 l-335 0 -6 -23z"/>
<path d="M5215 1778 c8 -152 25 -601 25 -674 l0 -64 98 0 97 0 145 297 145
297 3 -69 c2 -39 6 -171 10 -295 l7 -225 94 0 95 0 198 410 c108 226 198 413
198 418 0 4 -39 7 -87 7 l-88 0 -130 -276 -130 -275 -6 98 c-4 54 -7 150 -8
214 0 64 -4 144 -7 178 l-7 61 -97 0 -97 0 -134 -276 -134 -275 -6 113 c-4 62
-7 186 -8 276 l-1 162 -90 0 -91 0 6 -102z"/>
<path d="M7020 1876 c0 -2 -38 -187 -85 -411 -47 -225 -85 -412 -85 -417 0 -4
36 -8 79 -8 l79 0 7 41 7 41 32 -33 c43 -44 84 -59 161 -59 112 0 207 66 260
181 75 166 52 353 -53 420 -62 39 -164 41 -235 5 -46 -23 -47 -23 -42 -2 3 12
16 72 29 134 l24 112 -89 0 c-49 0 -89 -2 -89 -4z m279 -362 c28 -20 51 -72
51 -118 0 -44 -35 -155 -58 -181 -67 -79 -166 -72 -202 15 -32 78 17 240 85
282 37 22 93 23 124 2z"/>
<path d="M8056 1808 c-47 -215 -156 -744 -156 -756 0 -11 44 -13 238 -10 221
3 241 5 295 27 82 32 166 117 211 211 46 95 59 163 54 279 -4 110 -31 182 -89
239 -71 72 -90 77 -326 80 l-211 3 -16 -73z m386 -94 c14 -7 37 -30 50 -51 20
-33 23 -50 22 -133 0 -108 -20 -172 -76 -244 -57 -75 -85 -88 -209 -99 -61 -5
-112 -7 -115 -4 -3 3 21 130 53 282 l58 277 95 -7 c52 -4 107 -13 122 -21z"/>
<path d="M10207 1843 c-4 -21 -9 -53 -13 -70 l-6 -33 86 0 c85 0 86 0 92 28 3
15 10 43 15 62 5 19 9 38 9 43 0 4 -40 7 -89 7 l-88 0 -6 -37z"/>
<path d="M6430 1643 c-27 -10 -67 -38 -101 -72 -75 -75 -102 -144 -102 -261
-1 -103 23 -161 89 -218 53 -47 100 -62 196 -62 64 0 84 5 137 31 59 30 131
103 131 134 0 7 -30 17 -76 25 l-76 13 -21 -25 c-12 -15 -32 -31 -44 -37 -32
-16 -95 -13 -122 5 -25 18 -51 71 -51 103 0 20 7 21 208 23 l207 3 3 90 c2 82
0 95 -25 145 -18 36 -43 65 -71 85 -40 28 -51 30 -140 32 -69 2 -110 -2 -142
-14z m191 -142 c21 -22 29 -39 29 -65 l0 -36 -120 0 c-66 0 -120 2 -120 5 0 3
6 20 14 38 36 86 138 116 197 58z"/>
<path d="M8970 1643 c-27 -10 -67 -38 -101 -72 -75 -75 -102 -144 -102 -261
-1 -103 23 -161 89 -218 53 -47 100 -62 196 -62 64 0 84 5 137 31 59 30 131
103 131 134 0 7 -30 17 -76 25 l-76 13 -21 -25 c-12 -15 -32 -31 -44 -37 -32
-16 -95 -13 -122 5 -25 18 -51 71 -51 103 0 20 7 21 208 23 l207 3 3 90 c2 82
0 95 -25 145 -18 36 -43 65 -71 85 -40 28 -51 30 -140 32 -69 2 -110 -2 -142
-14z m191 -142 c21 -22 29 -39 29 -65 l0 -36 -120 0 c-66 0 -120 2 -120 5 0 3
6 20 14 38 36 86 138 116 197 58z"/>
<path d="M9608 1646 c-53 -19 -82 -40 -115 -82 -22 -30 -27 -47 -28 -95 0 -95
36 -130 190 -185 110 -39 130 -52 121 -81 -9 -28 -48 -43 -113 -43 -53 0 -58
2 -95 41 l-40 42 -75 -11 c-41 -5 -77 -13 -80 -16 -11 -11 40 -97 75 -126 56
-46 126 -63 246 -58 78 3 110 9 141 25 51 27 90 68 109 115 21 49 20 84 -3
135 -23 50 -74 82 -181 114 -100 29 -130 45 -130 69 0 27 30 40 94 40 48 0 60
-4 91 -32 l36 -31 71 11 c38 5 72 12 74 15 3 3 2 17 -2 32 -10 42 -83 111
-129 124 -55 15 -212 13 -257 -3z"/>
<path d="M10592 1645 c-66 -29 -110 -74 -148 -151 -33 -66 -38 -84 -42 -172
-5 -116 7 -169 51 -219 41 -47 82 -63 157 -63 45 0 73 7 110 25 28 14 50 22
50 17 0 -34 -35 -114 -57 -131 -53 -42 -163 -21 -163 31 0 11 -19 18 -69 27
-39 6 -82 11 -97 11 -26 0 -27 -1 -21 -51 8 -68 34 -109 88 -139 41 -23 54
-25 174 -25 116 0 135 2 178 24 57 28 90 73 117 160 18 57 140 626 140 651 0
6 -34 10 -80 10 -79 0 -80 0 -86 -27 -12 -58 -13 -58 -52 -20 -20 20 -50 41
-65 46 -40 15 -146 13 -185 -4z m191 -135 c104 -82 20 -340 -110 -340 -46 0
-69 14 -89 52 -36 71 5 234 72 287 35 27 93 28 127 1z"/>
<path d="M11460 1644 c-19 -8 -48 -26 -66 -39 l-32 -24 8 34 8 35 -83 0 -84 0
-15 -72 c-9 -40 -38 -176 -64 -303 l-48 -230 84 -3 c47 -2 86 -1 88 0 2 2 19
80 39 173 43 197 68 254 130 291 67 39 135 26 135 -26 0 -10 -20 -113 -44
-229 l-44 -211 89 0 c49 0 89 3 89 6 0 3 21 107 46 230 30 152 43 236 38 257
-19 93 -66 127 -169 127 -39 -1 -85 -7 -105 -16z"/>
<path d="M10165 1638 c-2 -7 -29 -137 -60 -288 -31 -151 -58 -283 -61 -292 -5
-16 4 -18 84 -18 l88 0 62 298 c34 163 62 300 62 305 0 13 -170 8 -175 -5z"/>
</g>
</svg>
